<svg width="49" height="35" viewBox="0 0 49 35" fill="none" xmlns="http://www.w3.org/2000/svg">
<g clip-path="url(#clip0_24_35)">
<path d="M11.2083 25.1056C8.55914 25.1056 6.40479 27.2599 6.40479 29.9091C6.40479 32.5582 8.55914 34.7126 11.2083 34.7126C13.8574 34.7126 16.0118 32.5582 16.0118 29.9091C16.0118 27.2599 13.8573 25.1056 11.2083 25.1056ZM11.2083 33.1114C9.44216 33.1114 8.00599 31.6751 8.00599 29.9091C8.00599 28.1429 9.44226 26.7068 11.2083 26.7068C12.9743 26.7068 14.4106 28.143 14.4106 29.9091C14.4106 31.6751 12.9743 33.1114 11.2083 33.1114Z" fill="#35A826"/>
<path d="M38.428 25.1056C35.7788 25.1056 33.6245 27.2599 33.6245 29.9091C33.6245 32.5582 35.7788 34.7126 38.428 34.7126C41.0771 34.7126 43.2315 32.5582 43.2315 29.9091C43.2315 27.2599 41.0771 25.1056 38.428 25.1056ZM38.428 33.1114C36.6618 33.1114 35.2257 31.6751 35.2257 29.9091C35.2257 28.1429 36.6619 26.7068 38.428 26.7068C40.1941 26.7068 41.6303 28.143 41.6303 29.9091C41.6303 31.6751 40.1941 33.1114 38.428 33.1114Z" fill="#35A826"/>
<path d="M47.9076 20.6696L40.7023 9.46136C40.555 9.23235 40.3012 9.09387 40.029 9.09387H31.2226C30.7799 9.09387 30.4221 9.45254 30.4221 9.89442V29.909C30.4221 30.3517 30.7799 30.7095 31.2226 30.7095H34.4249V29.1083H32.0232V10.6951H39.5919L46.4337 21.338V29.1085H42.4307V30.7096H47.2342C47.677 30.7096 48.0348 30.3518 48.0348 29.9091V21.1026C48.0349 20.9497 47.9909 20.7984 47.9076 20.6696Z" fill="#35A826"/>
<path d="M35.2256 19.5014V13.8974H41.6303V12.2962H34.425C33.9823 12.2962 33.6245 12.6548 33.6245 13.0967V20.302C33.6245 20.7447 33.9823 21.1025 34.425 21.1025H46.4338V19.5013L35.2256 19.5014Z" fill="#35A826"/>
<path d="M31.2227 3.48981H0.800552C0.358667 3.48981 0 3.84847 0 4.29036V29.909C0 30.3518 0.358667 30.7096 0.800552 30.7096H7.20525V29.1084H1.6012V5.09091H30.4222V29.1084H15.211V30.7096H31.2227C31.6655 30.7096 32.0233 30.3518 32.0233 29.909V4.29036C32.0233 3.84847 31.6655 3.48981 31.2227 3.48981Z" fill="#35A826"/>
<path d="M5.60404 25.9061H0.800537V27.5073H5.60404V25.9061Z" fill="#35A826"/>
<path d="M30.4223 25.9061H16.8123V27.5073H30.4223V25.9061Z" fill="#35A826"/>
<path d="M47.2343 25.9061H44.032V27.5073H47.2343V25.9061Z" fill="#35A826"/>
<path d="M31.2228 6.69214H3.20239V8.29333H31.2228V6.69214Z" fill="#35A826"/>
<path d="M12.0087 29.1084H10.4075V30.7096H12.0087V29.1084Z" fill="#35A826"/>
<path d="M39.2286 29.1084H37.6274V30.7096H39.2286V29.1084Z" fill="#35A826"/>
<path d="M14.4106 0.287415H3.20239V1.88861H14.4106V0.287415Z" fill="#35A826"/>
<path d="M1.6012 0.287415H0V1.88861H1.6012V0.287415Z" fill="#35A826"/>
</g>
<defs>
<clipPath id="clip0_24_35">
<rect width="49" height="35" fill="white"/>
</clipPath>
</defs>
</svg>
