<svg width="49" height="48" viewBox="0 0 49 48" fill="none" xmlns="http://www.w3.org/2000/svg">
<path d="M26.9289 1.50001C23.758 1.50235 20.6318 2.24881 17.8018 3.67934C14.9718 5.10987 12.5171 7.18455 10.6349 9.73653C8.75275 12.2885 7.49574 15.2466 6.96497 18.3728C6.4342 21.4991 6.64448 24.7063 7.5789 27.7364L3.26453 25.5793C3.08684 25.4921 2.88192 25.4787 2.69442 25.5421C2.50692 25.6054 2.35203 25.7402 2.26352 25.9172C2.17501 26.0942 2.16004 26.299 2.22188 26.487C2.28371 26.675 2.41735 26.8309 2.59365 26.9208L8.59365 29.9208C8.73446 29.9912 8.89385 30.0155 9.04924 29.9903C9.20463 29.965 9.34814 29.8915 9.45943 29.7802L13.9595 25.2802C14.0291 25.2105 14.0844 25.1279 14.122 25.0369C14.1597 24.9459 14.1791 24.8483 14.1791 24.7498C14.1791 24.6513 14.1597 24.5538 14.122 24.4628C14.0844 24.3718 14.0291 24.2891 13.9595 24.2195C13.8898 24.1499 13.8071 24.0946 13.7161 24.0569C13.6251 24.0192 13.5276 23.9998 13.4291 23.9998C13.3306 23.9998 13.2331 24.0192 13.1421 24.0569C13.0511 24.0946 12.9684 24.1499 12.8988 24.2195L9.21343 27.9048C8.52552 25.9258 8.17578 23.8452 8.1789 21.75C8.1789 11.4113 16.5902 3.00001 26.9289 3.00001C37.2677 3.00001 45.6789 11.4113 45.6789 21.75C45.6789 32.0888 37.2677 40.5 26.9289 40.5C26.73 40.5 26.5393 40.579 26.3986 40.7197C26.2579 40.8604 26.1789 41.0511 26.1789 41.25C26.1789 41.4489 26.2579 41.6397 26.3986 41.7804C26.5393 41.921 26.73 42 26.9289 42C30.934 42 34.8491 40.8124 38.1792 38.5873C41.5093 36.3622 44.1048 33.1996 45.6375 29.4994C47.1702 25.7992 47.5712 21.7276 46.7898 17.7995C46.0085 13.8713 44.0798 10.2631 41.2478 7.4311C39.3718 5.54482 37.1403 4.04937 34.6825 3.03129C32.2246 2.01322 29.5893 1.49275 26.9289 1.50001Z" fill="#35A826"/>
<path d="M17.2359 25.7871C17.2927 25.9241 17.3888 26.0412 17.5122 26.1236C17.6355 26.206 17.7805 26.25 17.9288 26.25H25.4288C25.6277 26.25 25.8185 26.171 25.9592 26.0303C26.0998 25.8897 26.1788 25.6989 26.1788 25.5C26.1788 25.3011 26.0998 25.1103 25.9592 24.9697C25.8185 24.829 25.6277 24.75 25.4288 24.75H19.7394L25.2092 19.2803C25.2788 19.2107 25.3341 19.128 25.3717 19.037C25.4094 18.946 25.4288 18.8485 25.4288 18.75C25.4288 17.0958 23.7466 15.75 21.6788 15.75C19.6111 15.75 17.9288 17.0958 17.9288 18.75C17.9288 18.9489 18.0078 19.1397 18.1485 19.2803C18.2891 19.421 18.4799 19.5 18.6788 19.5C18.8777 19.5 19.0685 19.421 19.2092 19.2803C19.3498 19.1397 19.4288 18.9489 19.4288 18.75C19.4288 17.9369 20.4591 17.25 21.6788 17.25C22.7596 17.25 23.6918 17.7895 23.89 18.4781L17.3985 24.9696C17.2936 25.0745 17.2221 25.2081 17.1932 25.3537C17.1642 25.4992 17.1791 25.65 17.2359 25.7871Z" fill="#35A826"/>
<path d="M40.0572 13.046C39.9471 12.8803 39.7758 12.7651 39.5808 12.7258C39.3858 12.6864 39.1831 12.7262 39.0174 12.8363C38.8517 12.9463 38.7366 13.1177 38.6972 13.3127C38.6579 13.5077 38.6976 13.7103 38.8077 13.876C39.0697 14.2703 39.3145 14.6823 39.5355 15.0999C39.6296 15.2737 39.7885 15.4032 39.9776 15.4605C40.1667 15.5177 40.3708 15.498 40.5455 15.4057C40.7201 15.3133 40.8513 15.1558 40.9105 14.9673C40.9697 14.7787 40.9521 14.5745 40.8615 14.3989C40.6173 13.9369 40.3467 13.4818 40.0572 13.046Z" fill="#35A826"/>
<path d="M42.0449 17.3126C42.0181 17.2171 41.9726 17.1278 41.9111 17.0499C41.8495 16.9721 41.7731 16.9072 41.6864 16.8591C41.5996 16.811 41.5041 16.7806 41.4055 16.7697C41.3068 16.7587 41.207 16.7674 41.1118 16.7954C41.0166 16.8233 40.9278 16.8698 40.8507 16.9323C40.7736 16.9947 40.7096 17.0718 40.6625 17.1592C40.6155 17.2465 40.5862 17.3424 40.5764 17.4411C40.5666 17.5399 40.5765 17.6396 40.6055 17.7345C40.739 18.1901 40.8495 18.6521 40.9367 19.1188C40.9731 19.3143 41.0858 19.4874 41.2499 19.5998C41.4139 19.7123 41.616 19.755 41.8115 19.7185C42.007 19.6821 42.1801 19.5694 42.2926 19.4054C42.405 19.2413 42.4477 19.0393 42.4113 18.8437C42.3148 18.3276 42.1925 17.8165 42.0449 17.3126Z" fill="#35A826"/>
<path d="M41.4848 25.4653C41.2949 25.4067 41.0894 25.426 40.9136 25.5188C40.7378 25.6117 40.6061 25.7705 40.5473 25.9605C40.4071 26.4142 40.2442 26.8606 40.0593 27.298C40.0201 27.3889 39.9993 27.4866 39.9981 27.5855C39.9968 27.6844 40.0151 27.7826 40.052 27.8744C40.0889 27.9662 40.1435 28.0498 40.2128 28.1204C40.2821 28.191 40.3647 28.2472 40.4559 28.2857C40.547 28.3243 40.6448 28.3444 40.7438 28.3449C40.8427 28.3455 40.9407 28.3265 41.0323 28.289C41.1238 28.2515 41.2071 28.1962 41.2772 28.1264C41.3473 28.0566 41.4029 27.9737 41.4408 27.8823C41.6453 27.3986 41.8254 26.905 41.9805 26.4033C42.0096 26.3091 42.0198 26.2102 42.0106 26.1121C42.0014 26.014 41.973 25.9187 41.927 25.8316C41.881 25.7445 41.8182 25.6673 41.7424 25.6045C41.6665 25.5416 41.579 25.4943 41.4848 25.4653Z" fill="#35A826"/>
<path d="M36.8996 9.55733C36.7455 9.43301 36.5485 9.37467 36.3516 9.39503C36.1546 9.41539 35.9737 9.5128 35.8483 9.66601C35.7229 9.81922 35.6632 10.0158 35.6821 10.2129C35.7011 10.41 35.7972 10.5916 35.9496 10.7181C36.3162 11.0181 36.6714 11.3399 37.0053 11.6743C37.0749 11.744 37.1576 11.7993 37.2486 11.837C37.3396 11.8747 37.4371 11.8941 37.5356 11.8942C37.6341 11.8942 37.7316 11.8748 37.8227 11.8371C37.9137 11.7995 37.9964 11.7442 38.066 11.6746C38.1357 11.605 38.191 11.5223 38.2287 11.4313C38.2664 11.3403 38.2859 11.2428 38.2859 11.1443C38.2859 11.0458 38.2665 10.9482 38.2289 10.8572C38.1912 10.7662 38.136 10.6835 38.0663 10.6138C37.6973 10.2444 37.3049 9.88901 36.8996 9.55733Z" fill="#35A826"/>
<path d="M37.9212 31.9838C38.0733 32.112 38.2701 32.1745 38.4683 32.1575C38.6665 32.1406 38.8498 32.0456 38.9779 31.8935C39.3148 31.4937 39.6354 31.0723 39.9309 30.6412C40.0434 30.4771 40.086 30.275 40.0495 30.0795C40.013 29.8839 39.9003 29.7109 39.7362 29.5984C39.6549 29.5427 39.5635 29.5036 39.4671 29.4833C39.3707 29.4629 39.2713 29.4618 39.1745 29.4799C38.9789 29.5164 38.8059 29.6291 38.6934 29.7932C38.426 30.1836 38.1357 30.565 37.8309 30.9276C37.7029 31.0797 37.6405 31.2763 37.6575 31.4744C37.6744 31.6725 37.7692 31.8557 37.9212 31.9838Z" fill="#35A826"/>
<path d="M42.6016 23.3207C42.653 22.802 42.6789 22.2734 42.6789 21.75C42.6789 21.5511 42.5999 21.3603 42.4593 21.2197C42.3186 21.079 42.1278 21 41.9289 21C41.73 21 41.5393 21.079 41.3986 21.2197C41.258 21.3603 41.1789 21.5511 41.1789 21.75C41.1789 22.2244 41.1554 22.7032 41.1089 23.1731C41.0893 23.3711 41.1492 23.5687 41.2753 23.7225C41.4015 23.8763 41.5835 23.9737 41.7815 23.9933C41.8065 23.9957 41.8314 23.997 41.8565 23.997C42.0424 23.9967 42.2216 23.9273 42.3593 23.8024C42.497 23.6774 42.5833 23.5057 42.6016 23.3207Z" fill="#35A826"/>
<path d="M23.7396 7.83976C23.7931 7.8397 23.8466 7.83395 23.8989 7.82261C24.363 7.72225 24.8318 7.64519 25.3036 7.5917C25.4015 7.58062 25.4962 7.55037 25.5824 7.50268C25.6686 7.45499 25.7445 7.39078 25.8059 7.31374C25.8673 7.2367 25.9129 7.14832 25.9401 7.05365C25.9673 6.95899 25.9756 6.85989 25.9645 6.76201C25.9535 6.66414 25.9232 6.5694 25.8755 6.48322C25.8278 6.39703 25.7636 6.32108 25.6866 6.25971C25.6095 6.19834 25.5212 6.15274 25.4265 6.12552C25.3318 6.0983 25.2327 6.08999 25.1348 6.10107C24.6147 6.16004 24.0922 6.24592 23.5817 6.35645C23.4006 6.3954 23.2404 6.49996 23.1318 6.64999C23.0233 6.80002 22.9741 6.9849 22.9937 7.16905C23.0133 7.3532 23.1003 7.52358 23.238 7.6474C23.3757 7.77121 23.5544 7.83979 23.7396 7.83976Z" fill="#35A826"/>
<path d="M14.3196 31.1888C14.6333 31.6072 14.9716 32.0144 15.3249 32.3992C15.46 32.5437 15.6466 32.629 15.8442 32.6366C16.0419 32.6442 16.2345 32.5733 16.3802 32.4396C16.5258 32.3058 16.6128 32.1199 16.6221 31.9224C16.6314 31.7248 16.5623 31.5316 16.4298 31.3848C16.1099 31.0364 15.8036 30.6677 15.5195 30.2888C15.4001 30.1297 15.2224 30.0245 15.0255 29.9964C14.8286 29.9682 14.6286 30.0195 14.4695 30.1388C14.3103 30.2582 14.2051 30.4359 14.177 30.6328C14.1489 30.8297 14.2002 31.0297 14.3196 31.1888Z" fill="#35A826"/>
<path d="M12.6085 17.2102C12.5133 17.1853 12.414 17.1793 12.3164 17.1926C12.2188 17.206 12.1248 17.2385 12.0398 17.2882C11.9548 17.3379 11.8804 17.4038 11.8208 17.4823C11.7613 17.5608 11.7178 17.6502 11.6928 17.7455C11.5598 18.2534 11.4523 18.7677 11.3707 19.2864C11.3398 19.4829 11.3882 19.6837 11.5053 19.8445C11.6225 20.0053 11.7987 20.1129 11.9952 20.1438C12.1917 20.1747 12.3924 20.1262 12.5532 20.0091C12.714 19.892 12.8217 19.7158 12.8526 19.5193C12.9263 19.0503 13.0235 18.5853 13.1438 18.126C13.1687 18.0307 13.1747 17.9315 13.1613 17.8339C13.148 17.7363 13.1155 17.6423 13.0658 17.5573C13.0161 17.4722 12.9501 17.3978 12.8717 17.3383C12.7932 17.2787 12.7038 17.2352 12.6085 17.2102Z" fill="#35A826"/>
<path d="M33.5795 9.14376C33.6666 9.19059 33.7621 9.21973 33.8606 9.22948C33.959 9.23924 34.0584 9.22943 34.153 9.20061C34.2477 9.1718 34.3356 9.12454 34.4119 9.06158C34.4882 8.99861 34.5513 8.92118 34.5976 8.83373C34.6438 8.74628 34.6723 8.65055 34.6814 8.55205C34.6905 8.45355 34.68 8.35422 34.6505 8.25979C34.621 8.16536 34.5732 8.07768 34.5097 8.00182C34.4462 7.92596 34.3684 7.8634 34.2806 7.81776C33.8177 7.57298 33.3376 7.34901 32.8536 7.1526C32.7623 7.11554 32.6646 7.09681 32.5661 7.09749C32.4677 7.09817 32.3703 7.11824 32.2795 7.15656C32.1888 7.19487 32.1065 7.25069 32.0373 7.32081C31.9682 7.39093 31.9135 7.47399 31.8764 7.56524C31.8394 7.6565 31.8207 7.75415 31.8213 7.85264C31.822 7.95113 31.8421 8.04853 31.8804 8.13926C31.9187 8.22999 31.9745 8.31229 32.0446 8.38145C32.1148 8.45062 32.1978 8.50529 32.2891 8.54235C32.729 8.72117 33.1596 8.92189 33.5795 9.14376Z" fill="#35A826"/>
<path d="M14.1377 15.4617C14.3476 15.0357 14.5786 14.6204 14.83 14.2175C14.933 14.0488 14.9652 13.8463 14.9197 13.6541C14.8742 13.4618 14.7546 13.2952 14.587 13.1906C14.4194 13.0859 14.2172 13.0517 14.0245 13.0952C13.8317 13.1388 13.664 13.2567 13.5576 13.4232C13.2808 13.8667 13.0233 14.3296 12.792 14.7988C12.7485 14.8872 12.7228 14.9833 12.7164 15.0816C12.71 15.1798 12.723 15.2784 12.7547 15.3717C12.7864 15.4649 12.8362 15.551 12.9011 15.6251C12.9661 15.6991 13.045 15.7596 13.1334 15.8031C13.2217 15.8467 13.3178 15.8724 13.4161 15.8788C13.5144 15.8852 13.613 15.8721 13.7062 15.8404C13.7995 15.8087 13.8856 15.759 13.9596 15.694C14.0336 15.629 14.0942 15.5501 14.1377 15.4617Z" fill="#35A826"/>
<path d="M19.5532 9.43604C19.6825 9.43605 19.8095 9.40252 19.9219 9.33873C20.3344 9.10567 20.7621 8.89098 21.1945 8.70066C21.2847 8.66099 21.3661 8.60395 21.4342 8.5328C21.5023 8.46164 21.5558 8.37777 21.5914 8.28597C21.6271 8.19418 21.6444 8.09624 21.6422 7.99777C21.6401 7.8993 21.6186 7.80222 21.5789 7.71207C21.5392 7.62192 21.4822 7.54047 21.411 7.47236C21.3399 7.40426 21.256 7.35083 21.1642 7.31514C21.0724 7.27945 20.9745 7.26219 20.876 7.26434C20.7775 7.26649 20.6804 7.28802 20.5903 7.3277C20.1098 7.53926 19.6402 7.77474 19.1832 8.03326C19.039 8.11486 18.9258 8.24194 18.8614 8.39465C18.797 8.54736 18.785 8.71709 18.8273 8.87734C18.8696 9.03758 18.9637 9.17931 19.0951 9.28039C19.2264 9.38147 19.3875 9.4362 19.5532 9.43604Z" fill="#35A826"/>
<path d="M35.7904 32.9102C35.4199 33.2049 35.0304 33.484 34.6327 33.7403C34.5494 33.7934 34.4774 33.8624 34.4209 33.9434C34.3644 34.0244 34.3244 34.1158 34.3032 34.2123C34.2821 34.3088 34.2803 34.4085 34.2978 34.5058C34.3153 34.603 34.3519 34.6958 34.4054 34.7788C34.4589 34.8619 34.5282 34.9335 34.6095 34.9897C34.6908 35.0459 34.7823 35.0854 34.879 35.1061C34.9756 35.1268 35.0753 35.1282 35.1724 35.1102C35.2696 35.0922 35.3622 35.0552 35.445 35.0013C35.8843 34.7182 36.3146 34.4097 36.7238 34.0844C36.8795 33.9606 36.9797 33.7801 37.0023 33.5824C37.0249 33.3848 36.968 33.1863 36.8442 33.0306C36.7204 32.8749 36.5399 32.7747 36.3422 32.7521C36.1446 32.7296 35.9461 32.7864 35.7904 32.9102Z" fill="#35A826"/>
<path d="M32.0994 35.0332C31.657 35.2055 31.2062 35.3554 30.7487 35.4824C30.6538 35.5087 30.565 35.5535 30.4874 35.6142C30.4098 35.6748 30.3449 35.7502 30.2964 35.8359C30.2479 35.9216 30.2168 36.0161 30.2048 36.1138C30.1928 36.2116 30.2002 36.3108 30.2265 36.4057C30.2797 36.5974 30.4069 36.7601 30.58 36.858C30.6658 36.9065 30.7602 36.9376 30.858 36.9496C30.9558 36.9616 31.0549 36.9542 31.1498 36.9278C31.6559 36.7873 32.1546 36.6215 32.644 36.431C32.7363 36.3956 32.8206 36.3423 32.8923 36.2742C32.9639 36.2061 33.0213 36.1245 33.0613 36.0341C33.1013 35.9437 33.123 35.8463 33.1252 35.7476C33.1274 35.6488 33.1101 35.5505 33.0742 35.4584C33.0383 35.3663 32.9846 35.2823 32.9161 35.211C32.8477 35.1398 32.7658 35.0827 32.6752 35.0432C32.5846 35.0037 32.4871 34.9825 32.3883 34.9808C32.2895 34.9791 32.1913 34.9969 32.0994 35.0332Z" fill="#35A826"/>
<path d="M18.5525 33.2796C18.3916 33.1625 18.1909 33.1141 17.9944 33.1451C17.7979 33.176 17.6218 33.2837 17.5047 33.4446C17.3876 33.6054 17.3393 33.8061 17.3702 34.0026C17.4012 34.1991 17.5089 34.3752 17.6697 34.4923C18.0928 34.8003 18.536 35.0901 18.9871 35.354C19.0721 35.405 19.1665 35.4386 19.2646 35.4529C19.3627 35.4672 19.4627 35.4619 19.5588 35.4372C19.6549 35.4126 19.7451 35.3692 19.8243 35.3095C19.9035 35.2498 19.97 35.175 20.0201 35.0894C20.0702 35.0038 20.1028 34.9091 20.116 34.8108C20.1292 34.7125 20.1229 34.6126 20.0972 34.5168C20.0716 34.421 20.0272 34.3312 19.9666 34.2527C19.9061 34.1742 19.8305 34.1084 19.7444 34.0593C19.3363 33.8205 18.9352 33.5582 18.5525 33.2796Z" fill="#35A826"/>
<path d="M26.521 35.9942H26.4995C26.3006 35.9914 26.1088 36.0678 25.9662 36.2065C25.8236 36.3452 25.7419 36.5349 25.7391 36.7338C25.7364 36.9327 25.8127 37.1246 25.9514 37.2672C26.0901 37.4098 26.2798 37.4914 26.4787 37.4942C26.6276 37.4984 26.7787 37.5005 26.9287 37.5005C27.3031 37.5005 27.6808 37.4871 28.0513 37.461C28.2497 37.447 28.4345 37.3548 28.5649 37.2046C28.6953 37.0544 28.7607 36.8585 28.7467 36.6601C28.7327 36.4617 28.6405 36.2769 28.4903 36.1465C28.3401 36.0161 28.1443 35.9507 27.9458 35.9647C27.4755 35.9975 26.9937 36.0077 26.521 35.9942Z" fill="#35A826"/>
<path d="M16.6153 9.84615C16.2203 10.1886 15.838 10.5549 15.479 10.935C15.3424 11.0796 15.2688 11.2725 15.2745 11.4714C15.2801 11.6702 15.3645 11.8587 15.5092 11.9953C15.6538 12.1319 15.8467 12.2054 16.0456 12.1998C16.2444 12.1941 16.4329 12.1097 16.5695 11.9651C16.8945 11.6211 17.2405 11.2895 17.598 10.9796C17.7483 10.8493 17.8407 10.6646 17.8548 10.4662C17.869 10.2678 17.8037 10.0719 17.6734 9.92157C17.5431 9.77127 17.3584 9.67889 17.16 9.66474C16.9616 9.6506 16.7656 9.71585 16.6153 9.84615Z" fill="#35A826"/>
<path d="M22.3309 35.2421C22.1426 35.1779 21.9365 35.1912 21.758 35.2789C21.5795 35.3667 21.4431 35.5218 21.379 35.7101C21.3148 35.8983 21.328 36.1044 21.4158 36.2829C21.5036 36.4614 21.6586 36.5978 21.8469 36.6619C22.3441 36.8311 22.8495 36.9754 23.3612 37.094C23.4571 37.1163 23.5565 37.1194 23.6537 37.1032C23.7508 37.087 23.8438 37.0518 23.9274 36.9997C24.011 36.9475 24.0834 36.8795 24.1407 36.7993C24.1979 36.7192 24.2388 36.6285 24.2611 36.5326C24.2833 36.4366 24.2864 36.3372 24.2702 36.2401C24.254 36.1429 24.2189 36.0499 24.1667 35.9663C24.1146 35.8828 24.0465 35.8103 23.9663 35.753C23.8862 35.6958 23.7956 35.6549 23.6996 35.6327C23.2371 35.5255 22.7803 35.3951 22.3309 35.2421Z" fill="#35A826"/>
<path d="M29.8359 6.26785C29.3227 6.17213 28.798 6.10106 28.2762 6.05681C28.078 6.04003 27.8812 6.10268 27.7292 6.23097C27.5772 6.35926 27.4823 6.54269 27.4656 6.74091C27.4488 6.93913 27.5114 7.13589 27.6397 7.28792C27.768 7.43995 27.9514 7.53478 28.1497 7.55157C28.6218 7.5916 29.0965 7.65572 29.5605 7.74244C29.756 7.77897 29.9581 7.73632 30.1222 7.62387C30.2863 7.51143 30.399 7.33841 30.4355 7.14286C30.472 6.94732 30.4294 6.74527 30.3169 6.58118C30.2045 6.41708 30.0315 6.30437 29.8359 6.26785Z" fill="#35A826"/>
<path d="M17.1787 45.75V38.25C17.1787 38.0511 17.0997 37.8603 16.9591 37.7197C16.8184 37.579 16.6276 37.5 16.4287 37.5H14.1787V35.25C14.1787 35.0511 14.0997 34.8603 13.9591 34.7197C13.8184 34.579 13.6276 34.5 13.4287 34.5H5.92871C5.7298 34.5 5.53904 34.579 5.39838 34.7197C5.25773 34.8603 5.17871 35.0511 5.17871 35.25V37.5H2.92871C2.7298 37.5 2.53904 37.579 2.39838 37.7197C2.25773 37.8603 2.17871 38.0511 2.17871 38.25V45.75C2.17871 45.9489 2.25773 46.1397 2.39838 46.2803C2.53904 46.421 2.7298 46.5 2.92871 46.5H16.4287C16.6276 46.5 16.8184 46.421 16.9591 46.2803C17.0997 46.1397 17.1787 45.9489 17.1787 45.75ZM5.17871 45H3.67871V39H5.17871V45ZM12.6787 45H10.4287V44.25C10.4287 44.0511 10.3497 43.8603 10.2091 43.7197C10.0684 43.579 9.87763 43.5 9.67871 43.5C9.4798 43.5 9.28904 43.579 9.14838 43.7197C9.00773 43.8603 8.92871 44.0511 8.92871 44.25V45H6.67871V36H12.6787V45ZM15.6787 45H14.1787V39H15.6787V45Z" fill="#35A826"/>
<path d="M8.92871 39H10.4287C10.6276 39 10.8184 38.921 10.9591 38.7803C11.0997 38.6397 11.1787 38.4489 11.1787 38.25C11.1787 38.0511 11.0997 37.8603 10.9591 37.7197C10.8184 37.579 10.6276 37.5 10.4287 37.5H8.92871C8.7298 37.5 8.53904 37.579 8.39838 37.7197C8.25773 37.8603 8.17871 38.0511 8.17871 38.25C8.17871 38.4489 8.25773 38.6397 8.39838 38.7803C8.53904 38.921 8.7298 39 8.92871 39Z" fill="#35A826"/>
<path d="M8.92871 42H10.4287C10.6276 42 10.8184 41.921 10.9591 41.7803C11.0997 41.6397 11.1787 41.4489 11.1787 41.25C11.1787 41.0511 11.0997 40.8603 10.9591 40.7197C10.8184 40.579 10.6276 40.5 10.4287 40.5H8.92871C8.7298 40.5 8.53904 40.579 8.39838 40.7197C8.25773 40.8603 8.17871 41.0511 8.17871 41.25C8.17871 41.4489 8.25773 41.6397 8.39838 41.7803C8.53904 41.921 8.7298 42 8.92871 42Z" fill="#35A826"/>
<path d="M27.7458 22.8099C27.8053 22.9411 27.9014 23.0524 28.0225 23.1304C28.1436 23.2085 28.2847 23.25 28.4287 23.25H32.9287V25.5C32.9287 25.6989 33.0078 25.8897 33.1484 26.0303C33.2891 26.171 33.4798 26.25 33.6787 26.25C33.8776 26.25 34.0684 26.171 34.2091 26.0303C34.3497 25.8897 34.4287 25.6989 34.4287 25.5V23.25H35.9287C36.1276 23.25 36.3184 23.171 36.4591 23.0303C36.5997 22.8897 36.6787 22.6989 36.6787 22.5C36.6787 22.3011 36.5997 22.1103 36.4591 21.9696C36.3184 21.829 36.1276 21.75 35.9287 21.75H34.4287V16.5C34.4287 16.3474 34.3822 16.1984 34.2953 16.073C34.2084 15.9475 34.0854 15.8515 33.9425 15.7979C33.7997 15.7442 33.6439 15.7354 33.4959 15.7726C33.3479 15.8098 33.2147 15.8913 33.1143 16.0061L27.8643 22.0061C27.7694 22.1145 27.7078 22.248 27.6867 22.3906C27.6657 22.5331 27.6862 22.6787 27.7458 22.8099ZM32.9287 18.4961V21.75H30.0815L32.9287 18.4961Z" fill="#35A826"/>
</svg>
