<svg width="49" height="48" viewBox="0 0 49 48" fill="none" xmlns="http://www.w3.org/2000/svg">
<g clip-path="url(#clip0_1_33)">
<mask id="mask0_1_33" style="mask-type:luminance" maskUnits="userSpaceOnUse" x="0" y="0" width="49" height="48">
<path d="M48.8823 0H0.882324V48H48.8823V0Z" fill="white"/>
</mask>
<g mask="url(#mask0_1_33)">
<path d="M48.2158 27.8883C47.5432 26.9486 46.4227 26.3171 45.2918 26.2402C44.3686 26.178 43.5321 26.4898 42.937 27.1198C42.8064 27.258 42.6655 27.4097 42.5164 27.5723C41.858 26.9691 40.9952 26.581 40.1254 26.5219C39.2019 26.46 38.3656 26.7716 37.7706 27.4015C36.4752 28.7727 34.1815 31.4513 32.3802 33.5838C32.1453 33.4448 31.8939 33.3303 31.628 33.2443C30.767 32.8735 18.8979 27.8045 13.6368 27.8045C5.13828 27.8045 1.23394 32.3725 1.07194 32.5669C0.823405 32.8652 0.863717 33.3076 1.16119 33.557C1.45876 33.8064 1.90276 33.7673 2.15307 33.4705C2.16207 33.4599 3.07417 32.3919 4.93718 31.3396C6.65432 30.3698 9.55758 29.2135 13.6367 29.2135C18.6912 29.2135 30.9781 34.4984 31.1016 34.5518C31.3275 34.6492 31.5604 34.7237 31.7667 34.8613C31.9614 34.9913 32.1357 35.1517 32.2818 35.3346C32.5654 35.69 32.7431 36.1297 32.7804 36.5832C32.8589 37.5335 32.3255 38.4516 31.4646 38.8574C30.9217 39.1134 30.3478 39.1211 29.7774 38.9648L22.0902 36.8476C21.7201 36.7456 21.3258 36.9698 21.2239 37.3397C21.122 37.7098 21.3459 38.1041 21.716 38.206L29.3925 40.3202C30.3252 40.608 31.3444 40.5138 32.2086 40.0606C33.0864 39.6004 33.7325 38.8258 34.0276 37.8797C34.124 37.5711 34.1783 37.2562 34.193 36.9415L36.2548 36.7243C36.4373 36.7051 36.6051 36.6155 36.7225 36.4745C36.7733 36.4135 41.8288 30.3443 43.9613 28.0872C44.8476 27.1486 46.4301 27.8139 47.0702 28.7081C48.0544 30.0831 46.8313 31.5842 46.433 32.0116C44.4759 34.1114 40.887 38.4377 40.2419 39.2175L25.6353 46.5208L18.1202 43.3565C17.7664 43.2076 17.3465 43.3785 17.1975 43.7325C17.0485 44.0863 17.2195 44.5061 17.5733 44.6551L25.3872 47.9451C25.5751 48.0243 25.7935 48.0171 25.9757 47.9259L41.0053 40.4111C41.0933 40.3671 41.171 40.3052 41.2336 40.2293C41.2749 40.1793 45.3829 35.2049 47.4639 32.9721C48.9956 31.3289 49.284 29.3806 48.2158 27.8883ZM35.8231 35.3532L33.9874 35.5465C33.8572 35.1781 33.6695 34.8319 33.4329 34.5211C34.9673 32.7048 37.4607 29.7814 38.7947 28.3694C39.1801 27.9613 39.6789 27.9035 40.0297 27.928C40.582 27.9656 41.1483 28.2261 41.5742 28.6202C39.4605 31.0063 36.5828 34.4432 35.8231 35.3532Z" fill="#35A826"/>
<path d="M14.6615 41.9007L11.6558 40.6351C11.5692 40.5986 11.4762 40.5798 11.3823 40.5798H1.61298C1.22392 40.5798 0.908447 40.8952 0.908447 41.2844C0.908447 41.6735 1.22392 41.9889 1.61298 41.9889H11.24L14.1145 43.1992C14.4927 43.3585 14.936 43.1515 15.0598 42.7617C15.1686 42.4195 14.9921 42.0398 14.6615 41.9007Z" fill="#35A826"/>
<path d="M38.3374 23.4908L35.3374 23.9194C37.7769 21.3057 39.1415 17.8817 39.1415 14.2311C39.1415 6.38413 32.7573 0 24.9103 0C17.0632 0 10.6792 6.38413 10.6792 14.2311C10.6792 17.3798 11.6866 20.3636 13.5926 22.8598C15.4372 25.2757 18.0529 27.0678 20.9581 27.9061C21.3424 28.0168 21.7504 27.7751 21.84 27.3862C21.923 27.0267 21.7026 26.6545 21.3486 26.5522C15.8962 24.9791 12.0881 19.9123 12.0881 14.231C12.0881 7.16085 17.8402 1.40888 24.9103 1.40888C31.9805 1.40888 37.7325 7.16085 37.7325 14.231C37.7325 17.7262 36.345 20.9915 33.8811 23.3947V19.6793C33.8811 19.2901 33.5657 18.9747 33.1766 18.9747C32.7874 18.9747 32.472 19.2901 32.472 19.6793V24.9396C32.472 25.3608 32.8589 25.697 33.2762 25.6371L38.5366 24.8856C38.9166 24.8313 39.1888 24.4686 39.1344 24.0885C39.0801 23.7089 38.7169 23.4371 38.3374 23.4908Z" fill="#35A826"/>
<path d="M24.9102 13.5265H24.1587C23.3041 13.5265 22.6088 12.8312 22.6088 11.9766C22.6088 11.122 23.3042 10.4266 24.1587 10.4266H27.1646C27.5538 10.4266 27.8692 10.1113 27.8692 9.72213C27.8692 9.33297 27.5538 9.0176 27.1646 9.0176H25.6146V8.21912C25.6146 7.82996 25.2993 7.51459 24.9101 7.51459C24.521 7.51459 24.2056 7.82996 24.2056 8.21912V9.0176H24.1586C22.5271 9.0176 21.1997 10.345 21.1997 11.9765C21.1997 13.6081 22.5271 14.9355 24.1586 14.9355H24.9101C25.7647 14.9355 26.4601 15.6308 26.4601 16.4854C26.4601 17.3399 25.7647 18.0352 24.9101 18.0352H21.9042C21.5151 18.0352 21.1997 18.3506 21.1997 18.7398C21.1997 19.1289 21.5151 19.4443 21.9042 19.4443H24.2056V20.2428C24.2056 20.6319 24.521 20.9473 24.9101 20.9473C25.2993 20.9473 25.6146 20.6319 25.6146 20.2428V19.359C26.9071 19.042 27.8691 17.8743 27.8691 16.4855C27.8692 14.8539 26.5417 13.5265 24.9102 13.5265Z" fill="#35A826"/>
</g>
</g>
<defs>
<clipPath id="clip0_1_33">
<rect width="49" height="48" fill="white"/>
</clipPath>
</defs>
</svg>
