<svg width="48" height="48" viewBox="0 0 48 48" fill="none" xmlns="http://www.w3.org/2000/svg">
<path d="M26.0003 2.25V3.23438C26.5336 3.34688 27.0503 3.4875 27.517 3.62813C28.5836 3.94688 29.217 5.18437 28.9337 6.38437C28.6503 7.58437 27.5503 8.29687 26.4836 7.97812C25.5753 7.70625 24.7253 7.51875 23.9669 7.50937C23.3586 7.5 22.7419 7.66875 22.3502 7.92188C22.1752 8.04375 22.0919 8.14687 22.0586 8.20312C22.0336 8.25 22.0002 8.31563 22.0002 8.46563C22.0002 8.49375 22.0002 8.5125 22.0002 8.52188C22.0169 8.54063 22.0752 8.63438 22.2752 8.76562C22.7586 9.09375 23.4753 9.34687 24.5586 9.7125L24.6336 9.74063C25.5586 10.05 26.792 10.4719 27.792 11.175C28.9336 11.9812 29.967 13.3219 29.992 15.3844C30.017 17.4938 29.042 19.0313 27.767 19.9313C27.2086 20.3156 26.6086 20.5875 25.992 20.7562V21.75C25.992 22.9969 25.1003 24 23.9919 24C22.8836 24 21.9919 22.9969 21.9919 21.75V20.6813C21.2002 20.4656 20.4752 20.1844 19.8586 19.95C19.6835 19.8844 19.5169 19.8188 19.3585 19.7625C18.3085 19.3688 17.7419 18.0937 18.0919 16.9125C18.4419 15.7312 19.5752 15.0937 20.6252 15.4875C20.8419 15.5719 21.0419 15.6469 21.2336 15.7219C22.3669 16.1531 23.1836 16.4625 24.0586 16.5C24.7253 16.5281 25.3169 16.35 25.6586 16.1156C25.8169 16.0031 25.892 15.9094 25.9253 15.8438C25.9586 15.7875 26.0003 15.675 25.992 15.4594V15.4406C25.992 15.3469 25.992 15.2438 25.6586 15.0094C25.1836 14.6719 24.4669 14.4094 23.4003 14.0438L23.2419 13.9875C22.3419 13.6875 21.1586 13.2844 20.2086 12.6375C19.0835 11.8781 18.0002 10.575 17.9919 8.50312C17.9835 6.35625 19.0669 4.88437 20.3002 4.05937C20.8336 3.70312 21.4086 3.45937 21.9836 3.29062L22.0002 2.25C22.0002 1.00312 22.8919 0 24.0003 0C25.1086 0 26.0003 1.00312 26.0003 2.25ZM47.3505 31.5281C48.4422 33.1969 48.1255 35.5406 46.6422 36.7688L36.0921 45.5156C34.142 47.1281 31.792 48 29.367 48H16.0002H2.6667C1.19168 48 0 46.6594 0 45V39C0 37.3406 1.19168 36 2.6667 36H5.7334L9.4751 32.625C11.3668 30.9187 13.7168 30 16.1418 30H22.6669H24.0003H29.3337C30.8087 30 32.0003 31.3406 32.0003 33C32.0003 34.6594 30.8087 36 29.3337 36H24.0003H22.6669C21.9336 36 21.3336 36.675 21.3336 37.5C21.3336 38.325 21.9336 39 22.6669 39H32.717L42.6921 30.7312C44.1755 29.5031 46.2588 29.8594 47.3505 31.5281ZM16.1335 36H16.0585C16.0835 36 16.1085 36 16.1335 36Z" fill="#35A826"/>
</svg>
